<svg width="960" height="480" viewBox="0 0 960 480" fill="none" xmlns="http://www.w3.org/2000/svg">
<g clip-path="url(#clip0_743_30140)">
<rect width="960" height="480" fill="#080A0C"/>
<foreignObject x="20.7209" y="154.721" width="288.558" height="236.093"><div xmlns="http://www.w3.org/1999/xhtml" style="backdrop-filter:blur(0.84px);clip-path:url(#bgblur_1_743_30140_clip_path);height:100%;width:100%"></div></foreignObject><g filter="url(#filter0_g_743_30140)" data-figma-bg-blur-radius="1.67584">
<path d="M195.452 158C219.901 158 240.641 172.265 247.931 192.039C270.319 198.389 286.552 217.199 286.552 239.417C286.552 247.267 284.525 254.691 280.917 261.291C296.02 270.158 306 285.484 306 302.906C306 330.34 281.253 352.58 250.726 352.58C247.745 352.58 244.819 352.366 241.965 351.958C229.392 373.127 204.571 387.535 176.004 387.535C162.393 387.535 149.633 384.264 138.642 378.55C127.652 384.264 114.892 387.535 101.281 387.535C60.0133 387.535 26.559 357.47 26.559 320.384C26.559 308.566 29.9565 297.462 35.9208 287.815C28.4572 279.347 24 268.641 24 256.999C24.0001 229.565 48.7471 207.326 79.274 207.326C82.2154 207.326 85.103 207.533 87.9201 207.93C100.457 186.656 125.343 172.163 153.996 172.163C154.919 172.163 155.837 172.178 156.751 172.208C166.722 163.42 180.382 158 195.452 158Z" fill="#4C4C4C" fill-opacity="0.3"/>
</g>
<foreignObject x="-108.744" y="-57.7442" width="329.488" height="269.581"><div xmlns="http://www.w3.org/1999/xhtml" style="backdrop-filter:blur(0.96px);clip-path:url(#bgblur_2_743_30140_clip_path);height:100%;width:100%"></div></foreignObject><g filter="url(#filter1_g_743_30140)" data-figma-bg-blur-radius="1.91354">
<path d="M90.7713 -54C118.688 -54 142.37 -37.7111 150.694 -15.1326C176.258 -7.8825 194.793 13.5962 194.793 38.966C194.793 47.929 192.478 56.406 188.359 63.9419C205.604 74.0664 217 91.5669 217 111.46C217 142.785 188.743 168.179 153.886 168.179C150.482 168.179 147.141 167.936 143.883 167.469C129.526 191.642 101.184 208.093 68.5644 208.093C53.0235 208.093 38.4536 204.358 25.9038 197.834C13.3541 204.358 -1.21585 208.093 -16.7568 208.093C-63.8784 208.093 -102.078 173.764 -102.078 131.417C-102.078 117.923 -98.1986 105.243 -91.3883 94.2289C-99.9106 84.5593 -105 72.3345 -105 59.0412C-105 27.7161 -76.7427 2.32212 -41.8857 2.32212C-38.5271 2.32212 -35.2299 2.55854 -32.0132 3.01264C-17.6976 -21.279 10.7183 -37.8283 43.4356 -37.8283C44.4885 -37.8283 45.537 -37.8106 46.5807 -37.7766C57.9659 -47.8116 73.5643 -54 90.7713 -54Z" fill="#4C4C4C" fill-opacity="0.3"/>
</g>
<foreignObject x="475.884" y="276.884" width="362.233" height="296.372"><div xmlns="http://www.w3.org/1999/xhtml" style="backdrop-filter:blur(1.05px);clip-path:url(#bgblur_3_743_30140_clip_path);height:100%;width:100%"></div></foreignObject><g filter="url(#filter2_g_743_30140)" data-figma-bg-blur-radius="2.10371">
<path d="M695.227 281C725.918 281 751.953 298.908 761.105 323.73C789.209 331.701 809.586 355.314 809.586 383.205C809.586 393.059 807.042 402.378 802.513 410.663C821.471 421.793 834 441.033 834 462.903C834 497.341 802.935 525.259 764.613 525.259C760.871 525.259 757.198 524.991 753.616 524.479C737.833 551.054 706.674 569.14 670.813 569.14C653.728 569.14 637.71 565.033 623.913 557.861C610.116 565.033 594.098 569.14 577.013 569.14C525.208 569.14 483.212 531.399 483.212 484.843C483.212 470.008 487.477 456.069 494.964 443.96C485.595 433.329 480 419.889 480 405.275C480 370.837 511.066 342.919 549.387 342.919C553.079 342.919 556.704 343.179 560.24 343.678C575.978 316.973 607.218 298.779 643.187 298.779C644.345 298.779 645.497 298.798 646.645 298.836C659.161 287.803 676.31 281 695.227 281Z" fill="#4C4C4C" fill-opacity="0.3"/>
</g>
<foreignObject x="643.221" y="129.221" width="244.558" height="200.093"><div xmlns="http://www.w3.org/1999/xhtml" style="backdrop-filter:blur(0.71px);clip-path:url(#bgblur_4_743_30140_clip_path);height:100%;width:100%"></div></foreignObject><g filter="url(#filter3_g_743_30140)" data-figma-bg-blur-radius="1.4203">
<path d="M791.309 132C812.029 132 829.607 144.09 835.786 160.849C854.76 166.23 868.517 182.172 868.517 201.003C868.517 207.655 866.799 213.947 863.742 219.541C876.541 227.055 885 240.045 885 254.81C885 278.061 864.026 296.91 838.154 296.91C835.628 296.91 833.148 296.729 830.73 296.383C820.073 314.324 799.037 326.535 774.826 326.535C763.291 326.535 752.476 323.763 743.162 318.92C733.847 323.763 723.032 326.535 711.497 326.535C676.522 326.535 648.169 301.055 648.169 269.623C648.169 259.607 651.048 250.196 656.103 242.021C649.778 234.844 646 225.77 646 215.903C646 192.653 666.974 173.804 692.846 173.804C695.339 173.804 697.786 173.98 700.173 174.317C710.799 156.287 731.89 144.003 756.174 144.003C756.956 144.003 757.734 144.016 758.509 144.042C766.959 136.593 778.537 132 791.309 132Z" fill="#4C4C4C" fill-opacity="0.3"/>
</g>
<foreignObject x="778.884" y="-84.1163" width="362.233" height="296.372"><div xmlns="http://www.w3.org/1999/xhtml" style="backdrop-filter:blur(1.05px);clip-path:url(#bgblur_5_743_30140_clip_path);height:100%;width:100%"></div></foreignObject><g filter="url(#filter4_g_743_30140)" data-figma-bg-blur-radius="2.10371">
<path d="M998.227 -80C1028.92 -80 1054.95 -62.0923 1064.1 -37.27C1092.21 -29.2994 1112.59 -5.68618 1112.59 22.2049C1112.59 32.0585 1110.04 41.378 1105.51 49.6628C1124.47 60.7935 1137 80.0332 1137 101.903C1137 136.341 1105.93 164.259 1067.61 164.259C1063.87 164.259 1060.2 163.991 1056.62 163.479C1040.83 190.054 1009.67 208.14 973.813 208.14C956.728 208.14 940.71 204.033 926.913 196.861C913.116 204.033 897.098 208.14 880.013 208.14C828.208 208.14 786.212 170.399 786.212 123.843C786.212 109.008 790.477 95.0688 797.964 82.9598C788.595 72.3291 783 58.8894 783 44.2751C783 9.83696 814.066 -18.0807 852.387 -18.0807C856.079 -18.0807 859.704 -17.8207 863.24 -17.3215C878.978 -44.0273 910.218 -62.2212 946.187 -62.2212C947.345 -62.2212 948.497 -62.2017 949.645 -62.1643C962.161 -73.1966 979.31 -80 998.227 -80Z" fill="#4C4C4C" fill-opacity="0.3"/>
</g>
<foreignObject x="479.105" y="-232.895" width="280.465" height="342.791"><div xmlns="http://www.w3.org/1999/xhtml" style="backdrop-filter:blur(1px);clip-path:url(#bgblur_6_743_30140_clip_path);height:100%;width:100%"></div></foreignObject><g filter="url(#filter5_g_743_30140)" data-figma-bg-blur-radius="1.9908">
<path d="M755.674 -97.6751C755.674 -126.719 738.728 -151.357 715.238 -160.017C707.695 -186.613 685.349 -205.896 658.955 -205.897C649.63 -205.897 640.811 -203.489 632.971 -199.203C622.438 -217.144 604.231 -229 583.535 -229C550.945 -229 524.525 -199.602 524.525 -163.338C524.525 -159.796 524.779 -156.32 525.264 -152.931C500.115 -137.994 483 -108.508 483 -74.5717C483 -58.4033 486.886 -43.2452 493.673 -30.1888C486.886 -17.1323 483 -1.9742 483 14.1942C483 63.2182 518.715 102.96 562.772 102.96C576.811 102.96 590.002 98.924 601.461 91.8388C611.521 100.705 624.24 106 638.069 106C670.659 106 697.078 76.6018 697.078 40.3376C697.078 36.8434 696.832 33.4131 696.36 30.0665C721.632 15.173 738.85 -14.3902 738.85 -48.4283C738.85 -49.5238 738.831 -50.6146 738.796 -51.7004C749.236 -63.5452 755.674 -79.7735 755.674 -97.6751Z" fill="#898989" fill-opacity="0.3"/>
</g>
<foreignObject x="643.593" y="-145.407" width="245.302" height="299.814"><div xmlns="http://www.w3.org/1999/xhtml" style="backdrop-filter:blur(0.87px);clip-path:url(#bgblur_7_743_30140_clip_path);height:100%;width:100%"></div></foreignObject><g filter="url(#filter6_g_743_30140)" data-figma-bg-blur-radius="1.74121">
<path d="M885.488 -27.1398C885.488 -52.5422 870.666 -74.0912 850.121 -81.666C843.524 -104.928 823.98 -121.793 800.895 -121.793C792.739 -121.793 785.026 -119.687 778.169 -115.939C768.956 -131.63 753.031 -142 734.93 -142C706.426 -142 683.319 -116.288 683.319 -84.5699C683.319 -81.4723 683.541 -78.4323 683.965 -75.4676C661.969 -62.4038 647 -36.6143 647 -6.93285C647 7.20845 650.399 20.4662 656.335 31.8857C650.399 43.3052 647 56.5629 647 70.7042C647 113.582 678.237 148.341 716.771 148.341C729.049 148.341 740.587 144.811 750.609 138.614C759.408 146.369 770.532 151 782.628 151C811.132 151 834.239 125.288 834.239 93.5699C834.239 90.5138 834.024 87.5135 833.61 84.5865C855.714 71.5602 870.773 45.7035 870.773 15.9328C870.773 14.9747 870.757 14.0207 870.726 13.071C879.857 2.71118 885.488 -11.4825 885.488 -27.1398Z" fill="#4C4C4C" fill-opacity="0.3"/>
</g>
<foreignObject x="140.4" y="305.4" width="368.2" height="282.2"><div xmlns="http://www.w3.org/1999/xhtml" style="backdrop-filter:blur(0.85px);clip-path:url(#bgblur_8_743_30140_clip_path);height:100%;width:100%"></div></foreignObject><g filter="url(#filter7_g_743_30140)" data-figma-bg-blur-radius="1.69147">
<path d="M285.949 582C254.998 582 228.742 565.158 219.513 541.812C191.17 534.315 170.621 512.107 170.621 485.875C170.621 476.607 173.187 467.842 177.754 460.05C158.635 449.581 146 431.486 146 410.917C146 378.527 177.329 352.27 215.975 352.27C219.749 352.27 223.453 352.522 227.065 353.004C242.982 328.01 274.405 311 310.57 311C327.8 311 343.954 314.862 357.868 321.608C371.781 314.862 387.935 311 405.165 311C457.409 311 499.76 346.496 499.76 390.282C499.76 404.235 495.459 417.345 487.909 428.734C497.357 438.732 503 451.372 503 465.117C503 497.507 471.671 523.764 433.025 523.764C429.302 523.764 425.646 523.519 422.08 523.05C406.208 548.167 374.704 565.279 338.43 565.279C337.263 565.279 336.1 565.26 334.943 565.225C322.32 575.601 305.026 582 285.949 582Z" fill="#404040" fill-opacity="0.3"/>
</g>
<foreignObject x="-177.6" y="251.4" width="368.2" height="282.2"><div xmlns="http://www.w3.org/1999/xhtml" style="backdrop-filter:blur(0.85px);clip-path:url(#bgblur_9_743_30140_clip_path);height:100%;width:100%"></div></foreignObject><g filter="url(#filter8_g_743_30140)" data-figma-bg-blur-radius="1.69147">
<path d="M-32.0508 528C-63.0019 528 -89.2579 511.158 -98.4872 487.812C-126.83 480.315 -147.379 458.107 -147.379 431.875C-147.379 422.607 -144.813 413.842 -140.246 406.05C-159.365 395.581 -172 377.486 -172 356.917C-172 324.527 -140.671 298.27 -102.025 298.27C-98.2513 298.27 -94.5472 298.522 -90.935 299.004C-75.0176 274.01 -43.5949 257 -7.43013 257C9.80006 257 25.9537 260.862 39.8675 267.608C53.7814 260.862 69.935 257 87.1652 257C139.409 257 181.76 292.496 181.76 336.282C181.76 350.235 177.459 363.345 169.909 374.734C179.357 384.732 185 397.372 185 411.117C185 443.507 153.671 469.764 115.025 469.764C111.302 469.764 107.646 469.519 104.08 469.05C88.2082 494.167 56.7036 511.279 20.4301 511.279C19.2627 511.279 18.1003 511.26 16.9432 511.225C4.32045 521.601 -12.9735 528 -32.0508 528Z" fill="#393939" fill-opacity="0.3"/>
</g>
<foreignObject x="47.3476" y="-122.652" width="377.305" height="324.383"><div xmlns="http://www.w3.org/1999/xhtml" style="backdrop-filter:blur(1.31px);clip-path:url(#bgblur_10_743_30140_clip_path);height:100%;width:100%"></div></foreignObject><g filter="url(#filter9_g_743_30140)" data-figma-bg-blur-radius="2.61343">
<path d="M197.125 193.078C165.914 193.078 139.437 173.993 130.131 147.54C101.55 139.045 80.8277 113.88 80.8276 84.1555C80.8276 73.6542 83.4154 63.7223 88.0209 54.8929C68.741 43.0306 56.0001 22.5264 56 -0.780919C56 -37.4827 87.592 -67.2358 126.563 -67.2358C130.368 -67.2358 134.104 -66.9501 137.746 -66.4038C153.797 -94.7252 185.484 -114 221.953 -114C239.328 -114 255.617 -109.624 269.648 -101.98C283.679 -109.624 299.968 -114 317.343 -114C370.026 -114 412.733 -73.7787 412.733 -24.1633C412.733 -8.35322 408.396 6.50254 400.782 19.4074C410.31 30.7368 416 45.0598 416 60.6347C416 97.3364 384.408 127.089 345.437 127.089C341.682 127.089 337.996 126.812 334.4 126.28C318.395 154.741 286.625 174.131 250.047 174.131C248.87 174.131 247.698 174.11 246.531 174.07C233.802 185.827 216.363 193.078 197.125 193.078Z" fill="#858585" fill-opacity="0.3"/>
</g>
<path d="M566.01 232.849C566.01 239.024 563.408 241.627 555.468 242.465L536.811 244.405C538.399 249.345 542.412 251.11 548.279 251.11C551.146 251.11 554.586 250.625 558.379 249.698C561.246 249.037 562.967 250.272 562.967 253.139V254.462C562.967 256.844 561.864 258.387 559.526 259.005C554.763 260.284 550.264 260.946 546.118 260.946C532.753 260.946 523.799 253.668 523.799 238.495C523.799 224.16 531.386 216 546.206 216C558.644 216 566.01 221.822 566.01 232.849ZM551.366 233.952C553.925 233.687 554.41 233.202 554.41 231.702C554.41 227.512 551.852 225.263 546.206 225.263C540.075 225.263 536.811 228.041 536.149 235.496L551.366 233.952Z" fill="#00EF24"/>
<path d="M518.337 233.055C518.337 235.658 516.881 237.113 514.279 237.113H502.281V254.403C502.281 258.902 504.266 260.799 509.118 260.799C511.456 260.799 512.956 260.314 514.499 260.314C517.234 260.314 518.293 261.372 518.293 263.534V265.739C518.293 267.988 517.234 269.62 515.029 270.062C501.002 273.414 489.799 269.841 489.799 254.403V221.058C489.799 218.456 491.255 217 493.857 217H498.224C500.826 217 502.281 218.456 502.281 221.058V227.057H514.279C516.881 227.057 518.337 228.512 518.337 231.114V233.055Z" fill="#00EF24"/>
<path d="M462.044 217C473.998 217 482.819 222.072 482.819 233.937V248.493C482.819 257.667 478.629 261.152 469.146 261.152H459.133C448.371 261.152 441.799 258.285 441.799 247.919C441.799 237.51 448.415 234.643 459.133 234.643H470.557V233.937C470.557 229.086 466.72 226.968 460.28 226.968C457.104 226.968 453.002 227.498 448.9 228.336C446.122 228.865 444.445 227.586 444.445 224.763V223.131C444.445 220.705 445.813 219.117 448.68 218.544C453.488 217.529 458.163 217 462.044 217ZM466.146 252.374C469.94 252.374 470.557 250.831 470.557 247.875V243.42H459.751C454.414 243.42 453.311 244.656 453.311 247.919C453.311 251.139 454.414 252.374 459.707 252.374H466.146Z" fill="#00EF24"/>
<path d="M370.678 275.134C367.944 275.134 366.532 273.546 366.841 270.855L371.605 228.997C372.531 220.308 375.971 217 383.117 217C390.35 217 393.394 220.308 395.026 228.997L401.068 259.432C401.333 260.799 401.818 261.24 402.392 261.24C402.965 261.24 403.494 260.799 403.715 259.432L409.802 228.997C411.434 220.308 414.477 217 421.667 217C428.856 217 432.297 220.308 433.223 228.997L437.987 270.855C438.295 273.546 436.884 275.134 434.149 275.134H429.915C427.401 275.134 425.945 273.855 425.681 271.297L421.579 231.776C421.49 231.159 421.182 230.85 420.608 230.85C420.035 230.85 419.77 231.159 419.682 231.732L412.492 267.591C411.39 272.973 408.258 275.134 402.392 275.134C396.569 275.134 393.394 272.973 392.335 267.591L385.146 231.732C385.057 231.159 384.793 230.85 384.219 230.85C383.646 230.85 383.337 231.159 383.249 231.776L379.147 271.297C378.882 273.855 377.427 275.134 374.913 275.134H370.678Z" fill="#00EF24"/>
<path d="M571.5 164C585.217 164 593.201 168.587 593.201 184.422V204.094C593.201 206.696 591.745 208.152 589.143 208.152H584.997C582.395 208.152 580.939 206.696 580.939 204.094V184.245C580.939 176.482 578.116 174.321 571.5 174.321C564.884 174.321 562.061 176.482 562.061 184.245V204.094C562.061 206.696 560.605 208.152 558.003 208.152H553.857C551.255 208.152 549.799 206.696 549.799 204.094V184.422C549.799 168.587 557.782 164 571.5 164Z" fill="#00EF24"/>
<path d="M536.636 152.585C532.093 152.585 529.799 150.071 529.799 145.837C529.799 141.602 532.093 139 536.636 139C541.223 139 543.472 141.602 543.472 145.837C543.472 150.071 541.223 152.585 536.636 152.585ZM534.43 201.589C531.828 201.589 530.372 200.133 530.372 197.531V162.289C530.372 159.687 531.828 158.231 534.43 158.231H538.797C541.399 158.231 542.855 159.687 542.855 162.289V197.531C542.855 200.133 541.399 201.589 538.797 201.589H534.43Z" fill="#00EF24"/>
<path d="M503.044 158C514.998 158 523.819 163.072 523.819 174.937V189.493C523.819 198.667 519.629 202.152 510.146 202.152H500.133C489.371 202.152 482.799 199.285 482.799 188.919C482.799 178.51 489.415 175.643 500.133 175.643H511.557V174.937C511.557 170.086 507.72 167.968 501.28 167.968C498.104 167.968 494.002 168.498 489.9 169.336C487.122 169.865 485.445 168.586 485.445 165.763V164.131C485.445 161.705 486.813 160.117 489.68 159.544C494.488 158.529 499.163 158 503.044 158ZM507.146 193.374C510.94 193.374 511.557 191.831 511.557 188.875V184.42H500.751C495.414 184.42 494.311 185.656 494.311 188.919C494.311 192.139 495.414 193.374 500.707 193.374H507.146Z" fill="#00EF24"/>
<path d="M472.073 164.001C474.896 163.957 476.396 165.368 476.396 168.015V170.573C476.396 173.175 474.852 174.631 471.941 174.675C462.678 174.807 462.281 175.601 462.281 178.909V203.698C462.281 206.3 460.826 207.756 458.224 207.756H453.857C451.255 207.756 449.799 206.3 449.799 203.698V177.145C449.799 167.044 453.416 164.31 472.073 164.001Z" fill="#00EF24"/>
<path d="M433.32 178.347C440.201 180.64 443.73 185.139 443.73 192.814C443.73 204.988 434.864 208.34 417.75 208.34H410.516C400.989 208.34 396.799 204.855 396.799 195.681V163.659C396.799 154.485 400.989 151 410.472 151H416.515C432.614 151 440.951 154.264 440.951 165.556C440.951 171.863 438.393 175.965 433.32 178.347ZM409.193 174.112H418.015C426.042 174.112 428.998 172.392 428.998 167.143C428.998 162.38 426.087 160.704 418.015 160.704H412.81C409.723 160.704 409.193 162.115 409.193 164.365V174.112ZM420.397 198.636C428.512 198.636 431.335 196.96 431.335 191.755C431.335 186.154 428.424 184.434 420.397 184.434H409.193V194.975C409.193 197.225 409.723 198.636 412.81 198.636H420.397Z" fill="#00EF24"/>
<foreignObject x="747.66" y="207.66" width="363.693" height="312.68"><div xmlns="http://www.w3.org/1999/xhtml" style="backdrop-filter:blur(1.26px);clip-path:url(#bgblur_11_743_30140_clip_path);height:100%;width:100%"></div></foreignObject><g filter="url(#filter10_g_743_30140)" data-figma-bg-blur-radius="2.51915">
<path d="M892.034 512C861.949 512 836.427 493.604 827.456 468.104C799.906 459.916 779.932 435.659 779.932 407.007C779.932 396.885 782.426 387.311 786.866 378.8C768.281 367.366 756 347.601 756 325.135C756 289.757 786.452 261.077 824.017 261.077C827.686 261.077 831.286 261.353 834.797 261.879C850.269 234.579 880.813 216 915.966 216C932.714 216 948.416 220.218 961.94 227.586C975.465 220.218 991.167 216 1007.91 216C1058.7 216 1099.86 254.77 1099.86 302.596C1099.86 317.836 1095.68 332.155 1088.34 344.595C1097.53 355.515 1103.01 369.322 1103.01 384.335C1103.01 419.712 1072.56 448.392 1035 448.392C1031.38 448.392 1027.82 448.125 1024.36 447.612C1008.93 475.046 978.306 493.736 943.047 493.736C941.912 493.736 940.782 493.716 939.657 493.678C927.388 505.011 910.578 512 892.034 512Z" fill="#858585" fill-opacity="0.3"/>
</g>
</g>
<defs>
<filter id="filter0_g_743_30140" x="20.7209" y="154.721" width="288.558" height="236.093" filterUnits="userSpaceOnUse" color-interpolation-filters="sRGB">
<feFlood flood-opacity="0" result="BackgroundImageFix"/>
<feBlend mode="normal" in="SourceGraphic" in2="BackgroundImageFix" result="shape"/>
<feTurbulence type="fractalNoise" baseFrequency="0.06868569552898407 0.06868569552898407" numOctaves="3" seed="1296" />
<feDisplacementMap in="shape" scale="6.5581398010253906" xChannelSelector="R" yChannelSelector="G" result="displacedImage" width="100%" height="100%" />
<feMerge result="effect1_texture_743_30140">
<feMergeNode in="displacedImage"/>
</feMerge>
</filter>
<clipPath id="bgblur_1_743_30140_clip_path" transform="translate(-20.7209 -154.721)"><path d="M195.452 158C219.901 158 240.641 172.265 247.931 192.039C270.319 198.389 286.552 217.199 286.552 239.417C286.552 247.267 284.525 254.691 280.917 261.291C296.02 270.158 306 285.484 306 302.906C306 330.34 281.253 352.58 250.726 352.58C247.745 352.58 244.819 352.366 241.965 351.958C229.392 373.127 204.571 387.535 176.004 387.535C162.393 387.535 149.633 384.264 138.642 378.55C127.652 384.264 114.892 387.535 101.281 387.535C60.0133 387.535 26.559 357.47 26.559 320.384C26.559 308.566 29.9565 297.462 35.9208 287.815C28.4572 279.347 24 268.641 24 256.999C24.0001 229.565 48.7471 207.326 79.274 207.326C82.2154 207.326 85.103 207.533 87.9201 207.93C100.457 186.656 125.343 172.163 153.996 172.163C154.919 172.163 155.837 172.178 156.751 172.208C166.722 163.42 180.382 158 195.452 158Z"/>
</clipPath><filter id="filter1_g_743_30140" x="-108.744" y="-57.7442" width="329.488" height="269.581" filterUnits="userSpaceOnUse" color-interpolation-filters="sRGB">
<feFlood flood-opacity="0" result="BackgroundImageFix"/>
<feBlend mode="normal" in="SourceGraphic" in2="BackgroundImageFix" result="shape"/>
<feTurbulence type="fractalNoise" baseFrequency="0.060153316706418991 0.060153316706418991" numOctaves="3" seed="1296" />
<feDisplacementMap in="shape" scale="7.4883723258972168" xChannelSelector="R" yChannelSelector="G" result="displacedImage" width="100%" height="100%" />
<feMerge result="effect1_texture_743_30140">
<feMergeNode in="displacedImage"/>
</feMerge>
</filter>
<clipPath id="bgblur_2_743_30140_clip_path" transform="translate(108.744 57.7442)"><path d="M90.7713 -54C118.688 -54 142.37 -37.7111 150.694 -15.1326C176.258 -7.8825 194.793 13.5962 194.793 38.966C194.793 47.929 192.478 56.406 188.359 63.9419C205.604 74.0664 217 91.5669 217 111.46C217 142.785 188.743 168.179 153.886 168.179C150.482 168.179 147.141 167.936 143.883 167.469C129.526 191.642 101.184 208.093 68.5644 208.093C53.0235 208.093 38.4536 204.358 25.9038 197.834C13.3541 204.358 -1.21585 208.093 -16.7568 208.093C-63.8784 208.093 -102.078 173.764 -102.078 131.417C-102.078 117.923 -98.1986 105.243 -91.3883 94.2289C-99.9106 84.5593 -105 72.3345 -105 59.0412C-105 27.7161 -76.7427 2.32212 -41.8857 2.32212C-38.5271 2.32212 -35.2299 2.55854 -32.0132 3.01264C-17.6976 -21.279 10.7183 -37.8283 43.4356 -37.8283C44.4885 -37.8283 45.537 -37.8106 46.5807 -37.7766C57.9659 -47.8116 73.5643 -54 90.7713 -54Z"/>
</clipPath><filter id="filter2_g_743_30140" x="475.884" y="276.884" width="362.233" height="296.372" filterUnits="userSpaceOnUse" color-interpolation-filters="sRGB">
<feFlood flood-opacity="0" result="BackgroundImageFix"/>
<feBlend mode="normal" in="SourceGraphic" in2="BackgroundImageFix" result="shape"/>
<feTurbulence type="fractalNoise" baseFrequency="0.054715730249881744 0.054715730249881744" numOctaves="3" seed="1296" />
<feDisplacementMap in="shape" scale="8.2325572967529297" xChannelSelector="R" yChannelSelector="G" result="displacedImage" width="100%" height="100%" />
<feMerge result="effect1_texture_743_30140">
<feMergeNode in="displacedImage"/>
</feMerge>
</filter>
<clipPath id="bgblur_3_743_30140_clip_path" transform="translate(-475.884 -276.884)"><path d="M695.227 281C725.918 281 751.953 298.908 761.105 323.73C789.209 331.701 809.586 355.314 809.586 383.205C809.586 393.059 807.042 402.378 802.513 410.663C821.471 421.793 834 441.033 834 462.903C834 497.341 802.935 525.259 764.613 525.259C760.871 525.259 757.198 524.991 753.616 524.479C737.833 551.054 706.674 569.14 670.813 569.14C653.728 569.14 637.71 565.033 623.913 557.861C610.116 565.033 594.098 569.14 577.013 569.14C525.208 569.14 483.212 531.399 483.212 484.843C483.212 470.008 487.477 456.069 494.964 443.96C485.595 433.329 480 419.889 480 405.275C480 370.837 511.066 342.919 549.387 342.919C553.079 342.919 556.704 343.179 560.24 343.678C575.978 316.973 607.218 298.779 643.187 298.779C644.345 298.779 645.497 298.798 646.645 298.836C659.161 287.803 676.31 281 695.227 281Z"/>
</clipPath><filter id="filter3_g_743_30140" x="643.221" y="129.221" width="244.558" height="200.093" filterUnits="userSpaceOnUse" color-interpolation-filters="sRGB">
<feFlood flood-opacity="0" result="BackgroundImageFix"/>
<feBlend mode="normal" in="SourceGraphic" in2="BackgroundImageFix" result="shape"/>
<feTurbulence type="fractalNoise" baseFrequency="0.08104337751865387 0.08104337751865387" numOctaves="3" seed="1296" />
<feDisplacementMap in="shape" scale="5.5581393241882324" xChannelSelector="R" yChannelSelector="G" result="displacedImage" width="100%" height="100%" />
<feMerge result="effect1_texture_743_30140">
<feMergeNode in="displacedImage"/>
</feMerge>
</filter>
<clipPath id="bgblur_4_743_30140_clip_path" transform="translate(-643.221 -129.221)"><path d="M791.309 132C812.029 132 829.607 144.09 835.786 160.849C854.76 166.23 868.517 182.172 868.517 201.003C868.517 207.655 866.799 213.947 863.742 219.541C876.541 227.055 885 240.045 885 254.81C885 278.061 864.026 296.91 838.154 296.91C835.628 296.91 833.148 296.729 830.73 296.383C820.073 314.324 799.037 326.535 774.826 326.535C763.291 326.535 752.476 323.763 743.162 318.92C733.847 323.763 723.032 326.535 711.497 326.535C676.522 326.535 648.169 301.055 648.169 269.623C648.169 259.607 651.048 250.196 656.103 242.021C649.778 234.844 646 225.77 646 215.903C646 192.653 666.974 173.804 692.846 173.804C695.339 173.804 697.786 173.98 700.173 174.317C710.799 156.287 731.89 144.003 756.174 144.003C756.956 144.003 757.734 144.016 758.509 144.042C766.959 136.593 778.537 132 791.309 132Z"/>
</clipPath><filter id="filter4_g_743_30140" x="778.884" y="-84.1163" width="362.233" height="296.372" filterUnits="userSpaceOnUse" color-interpolation-filters="sRGB">
<feFlood flood-opacity="0" result="BackgroundImageFix"/>
<feBlend mode="normal" in="SourceGraphic" in2="BackgroundImageFix" result="shape"/>
<feTurbulence type="fractalNoise" baseFrequency="0.054715730249881744 0.054715730249881744" numOctaves="3" seed="1296" />
<feDisplacementMap in="shape" scale="8.2325572967529297" xChannelSelector="R" yChannelSelector="G" result="displacedImage" width="100%" height="100%" />
<feMerge result="effect1_texture_743_30140">
<feMergeNode in="displacedImage"/>
</feMerge>
</filter>
<clipPath id="bgblur_5_743_30140_clip_path" transform="translate(-778.884 84.1163)"><path d="M998.227 -80C1028.92 -80 1054.95 -62.0923 1064.1 -37.27C1092.21 -29.2994 1112.59 -5.68618 1112.59 22.2049C1112.59 32.0585 1110.04 41.378 1105.51 49.6628C1124.47 60.7935 1137 80.0332 1137 101.903C1137 136.341 1105.93 164.259 1067.61 164.259C1063.87 164.259 1060.2 163.991 1056.62 163.479C1040.83 190.054 1009.67 208.14 973.813 208.14C956.728 208.14 940.71 204.033 926.913 196.861C913.116 204.033 897.098 208.14 880.013 208.14C828.208 208.14 786.212 170.399 786.212 123.843C786.212 109.008 790.477 95.0688 797.964 82.9598C788.595 72.3291 783 58.8894 783 44.2751C783 9.83696 814.066 -18.0807 852.387 -18.0807C856.079 -18.0807 859.704 -17.8207 863.24 -17.3215C878.978 -44.0273 910.218 -62.2212 946.187 -62.2212C947.345 -62.2212 948.497 -62.2017 949.645 -62.1643C962.161 -73.1966 979.31 -80 998.227 -80Z"/>
</clipPath><filter id="filter5_g_743_30140" x="479.105" y="-232.895" width="280.465" height="342.791" filterUnits="userSpaceOnUse" color-interpolation-filters="sRGB">
<feFlood flood-opacity="0" result="BackgroundImageFix"/>
<feBlend mode="normal" in="SourceGraphic" in2="BackgroundImageFix" result="shape"/>
<feTurbulence type="fractalNoise" baseFrequency="0.057819012552499771 0.057819012552499771" numOctaves="3" seed="1296" />
<feDisplacementMap in="shape" scale="7.7906970977783203" xChannelSelector="R" yChannelSelector="G" result="displacedImage" width="100%" height="100%" />
<feMerge result="effect1_texture_743_30140">
<feMergeNode in="displacedImage"/>
</feMerge>
</filter>
<clipPath id="bgblur_6_743_30140_clip_path" transform="translate(-479.105 232.895)"><path d="M755.674 -97.6751C755.674 -126.719 738.728 -151.357 715.238 -160.017C707.695 -186.613 685.349 -205.896 658.955 -205.897C649.63 -205.897 640.811 -203.489 632.971 -199.203C622.438 -217.144 604.231 -229 583.535 -229C550.945 -229 524.525 -199.602 524.525 -163.338C524.525 -159.796 524.779 -156.32 525.264 -152.931C500.115 -137.994 483 -108.508 483 -74.5717C483 -58.4033 486.886 -43.2452 493.673 -30.1888C486.886 -17.1323 483 -1.9742 483 14.1942C483 63.2182 518.715 102.96 562.772 102.96C576.811 102.96 590.002 98.924 601.461 91.8388C611.521 100.705 624.24 106 638.069 106C670.659 106 697.078 76.6018 697.078 40.3376C697.078 36.8434 696.832 33.4131 696.36 30.0665C721.632 15.173 738.85 -14.3902 738.85 -48.4283C738.85 -49.5238 738.831 -50.6146 738.796 -51.7004C749.236 -63.5452 755.674 -79.7735 755.674 -97.6751Z"/>
</clipPath><filter id="filter6_g_743_30140" x="643.593" y="-145.407" width="245.302" height="299.814" filterUnits="userSpaceOnUse" color-interpolation-filters="sRGB">
<feFlood flood-opacity="0" result="BackgroundImageFix"/>
<feBlend mode="normal" in="SourceGraphic" in2="BackgroundImageFix" result="shape"/>
<feTurbulence type="fractalNoise" baseFrequency="0.066107064485549927 0.066107064485549927" numOctaves="3" seed="1296" />
<feDisplacementMap in="shape" scale="6.8139529228210449" xChannelSelector="R" yChannelSelector="G" result="displacedImage" width="100%" height="100%" />
<feMerge result="effect1_texture_743_30140">
<feMergeNode in="displacedImage"/>
</feMerge>
</filter>
<clipPath id="bgblur_7_743_30140_clip_path" transform="translate(-643.593 145.407)"><path d="M885.488 -27.1398C885.488 -52.5422 870.666 -74.0912 850.121 -81.666C843.524 -104.928 823.98 -121.793 800.895 -121.793C792.739 -121.793 785.026 -119.687 778.169 -115.939C768.956 -131.63 753.031 -142 734.93 -142C706.426 -142 683.319 -116.288 683.319 -84.5699C683.319 -81.4723 683.541 -78.4323 683.965 -75.4676C661.969 -62.4038 647 -36.6143 647 -6.93285C647 7.20845 650.399 20.4662 656.335 31.8857C650.399 43.3052 647 56.5629 647 70.7042C647 113.582 678.237 148.341 716.771 148.341C729.049 148.341 740.587 144.811 750.609 138.614C759.408 146.369 770.532 151 782.628 151C811.132 151 834.239 125.288 834.239 93.5699C834.239 90.5138 834.024 87.5135 833.61 84.5865C855.714 71.5602 870.773 45.7035 870.773 15.9328C870.773 14.9747 870.757 14.0207 870.726 13.071C879.857 2.71118 885.488 -11.4825 885.488 -27.1398Z"/>
</clipPath><filter id="filter7_g_743_30140" x="140.4" y="305.4" width="368.2" height="282.2" filterUnits="userSpaceOnUse" color-interpolation-filters="sRGB">
<feFlood flood-opacity="0" result="BackgroundImageFix"/>
<feBlend mode="normal" in="SourceGraphic" in2="BackgroundImageFix" result="shape"/>
<feTurbulence type="fractalNoise" baseFrequency="0.10309278219938278 0.10309278219938278" numOctaves="3" seed="7018" />
<feDisplacementMap in="shape" scale="11.199999809265137" xChannelSelector="R" yChannelSelector="G" result="displacedImage" width="100%" height="100%" />
<feMerge result="effect1_texture_743_30140">
<feMergeNode in="displacedImage"/>
</feMerge>
</filter>
<clipPath id="bgblur_8_743_30140_clip_path" transform="translate(-140.4 -305.4)"><path d="M285.949 582C254.998 582 228.742 565.158 219.513 541.812C191.17 534.315 170.621 512.107 170.621 485.875C170.621 476.607 173.187 467.842 177.754 460.05C158.635 449.581 146 431.486 146 410.917C146 378.527 177.329 352.27 215.975 352.27C219.749 352.27 223.453 352.522 227.065 353.004C242.982 328.01 274.405 311 310.57 311C327.8 311 343.954 314.862 357.868 321.608C371.781 314.862 387.935 311 405.165 311C457.409 311 499.76 346.496 499.76 390.282C499.76 404.235 495.459 417.345 487.909 428.734C497.357 438.732 503 451.372 503 465.117C503 497.507 471.671 523.764 433.025 523.764C429.302 523.764 425.646 523.519 422.08 523.05C406.208 548.167 374.704 565.279 338.43 565.279C337.263 565.279 336.1 565.26 334.943 565.225C322.32 575.601 305.026 582 285.949 582Z"/>
</clipPath><filter id="filter8_g_743_30140" x="-177.6" y="251.4" width="368.2" height="282.2" filterUnits="userSpaceOnUse" color-interpolation-filters="sRGB">
<feFlood flood-opacity="0" result="BackgroundImageFix"/>
<feBlend mode="normal" in="SourceGraphic" in2="BackgroundImageFix" result="shape"/>
<feTurbulence type="fractalNoise" baseFrequency="0.10309278219938278 0.10309278219938278" numOctaves="3" seed="7018" />
<feDisplacementMap in="shape" scale="11.199999809265137" xChannelSelector="R" yChannelSelector="G" result="displacedImage" width="100%" height="100%" />
<feMerge result="effect1_texture_743_30140">
<feMergeNode in="displacedImage"/>
</feMerge>
</filter>
<clipPath id="bgblur_9_743_30140_clip_path" transform="translate(177.6 -251.4)"><path d="M-32.0508 528C-63.0019 528 -89.2579 511.158 -98.4872 487.812C-126.83 480.315 -147.379 458.107 -147.379 431.875C-147.379 422.607 -144.813 413.842 -140.246 406.05C-159.365 395.581 -172 377.486 -172 356.917C-172 324.527 -140.671 298.27 -102.025 298.27C-98.2513 298.27 -94.5472 298.522 -90.935 299.004C-75.0176 274.01 -43.5949 257 -7.43013 257C9.80006 257 25.9537 260.862 39.8675 267.608C53.7814 260.862 69.935 257 87.1652 257C139.409 257 181.76 292.496 181.76 336.282C181.76 350.235 177.459 363.345 169.909 374.734C179.357 384.732 185 397.372 185 411.117C185 443.507 153.671 469.764 115.025 469.764C111.302 469.764 107.646 469.519 104.08 469.05C88.2082 494.167 56.7036 511.279 20.4301 511.279C19.2627 511.279 18.1003 511.26 16.9432 511.225C4.32045 521.601 -12.9735 528 -32.0508 528Z"/>
</clipPath><filter id="filter9_g_743_30140" x="47.3476" y="-122.652" width="377.305" height="324.383" filterUnits="userSpaceOnUse" color-interpolation-filters="sRGB">
<feFlood flood-opacity="0" result="BackgroundImageFix"/>
<feBlend mode="normal" in="SourceGraphic" in2="BackgroundImageFix" result="shape"/>
<feTurbulence type="fractalNoise" baseFrequency="0.066723942756652832 0.066723942756652832" numOctaves="3" seed="7018" />
<feDisplacementMap in="shape" scale="17.304719924926758" xChannelSelector="R" yChannelSelector="G" result="displacedImage" width="100%" height="100%" />
<feMerge result="effect1_texture_743_30140">
<feMergeNode in="displacedImage"/>
</feMerge>
</filter>
<clipPath id="bgblur_10_743_30140_clip_path" transform="translate(-47.3476 122.652)"><path d="M197.125 193.078C165.914 193.078 139.437 173.993 130.131 147.54C101.55 139.045 80.8277 113.88 80.8276 84.1555C80.8276 73.6542 83.4154 63.7223 88.0209 54.8929C68.741 43.0306 56.0001 22.5264 56 -0.780919C56 -37.4827 87.592 -67.2358 126.563 -67.2358C130.368 -67.2358 134.104 -66.9501 137.746 -66.4038C153.797 -94.7252 185.484 -114 221.953 -114C239.328 -114 255.617 -109.624 269.648 -101.98C283.679 -109.624 299.968 -114 317.343 -114C370.026 -114 412.733 -73.7787 412.733 -24.1633C412.733 -8.35322 408.396 6.50254 400.782 19.4074C410.31 30.7368 416 45.0598 416 60.6347C416 97.3364 384.408 127.089 345.437 127.089C341.682 127.089 337.996 126.812 334.4 126.28C318.395 154.741 286.625 174.131 250.047 174.131C248.87 174.131 247.698 174.11 246.531 174.07C233.802 185.827 216.363 193.078 197.125 193.078Z"/>
</clipPath><filter id="filter10_g_743_30140" x="747.66" y="207.66" width="363.693" height="312.68" filterUnits="userSpaceOnUse" color-interpolation-filters="sRGB">
<feFlood flood-opacity="0" result="BackgroundImageFix"/>
<feBlend mode="normal" in="SourceGraphic" in2="BackgroundImageFix" result="shape"/>
<feTurbulence type="fractalNoise" baseFrequency="0.069221131503582001 0.069221131503582001" numOctaves="3" seed="7018" />
<feDisplacementMap in="shape" scale="16.680444717407227" xChannelSelector="R" yChannelSelector="G" result="displacedImage" width="100%" height="100%" />
<feMerge result="effect1_texture_743_30140">
<feMergeNode in="displacedImage"/>
</feMerge>
</filter>
<clipPath id="bgblur_11_743_30140_clip_path" transform="translate(-747.66 -207.66)"><path d="M892.034 512C861.949 512 836.427 493.604 827.456 468.104C799.906 459.916 779.932 435.659 779.932 407.007C779.932 396.885 782.426 387.311 786.866 378.8C768.281 367.366 756 347.601 756 325.135C756 289.757 786.452 261.077 824.017 261.077C827.686 261.077 831.286 261.353 834.797 261.879C850.269 234.579 880.813 216 915.966 216C932.714 216 948.416 220.218 961.94 227.586C975.465 220.218 991.167 216 1007.91 216C1058.7 216 1099.86 254.77 1099.86 302.596C1099.86 317.836 1095.68 332.155 1088.34 344.595C1097.53 355.515 1103.01 369.322 1103.01 384.335C1103.01 419.712 1072.56 448.392 1035 448.392C1031.38 448.392 1027.82 448.125 1024.36 447.612C1008.93 475.046 978.306 493.736 943.047 493.736C941.912 493.736 940.782 493.716 939.657 493.678C927.388 505.011 910.578 512 892.034 512Z"/>
</clipPath><clipPath id="clip0_743_30140">
<rect width="960" height="480" fill="white"/>
</clipPath>
</defs>
</svg>
